<svg width="160" height="37" viewBox="0 0 160 37" fill="none" xmlns="http://www.w3.org/2000/svg">
<g clip-path="url(#clip0_1_279)">
<path d="M118.112 13.5824C119.289 13.6064 120.744 13.5416 122.198 13.6143C122.381 13.6232 122.563 13.6493 122.742 13.686C123.806 13.9036 124.291 14.4408 124.431 15.5826C124.473 15.9268 124.46 16.2778 124.482 16.6251C124.491 16.7621 124.433 16.8035 124.31 16.827C123.661 16.9514 123.011 17.0796 122.363 17.2151C122.198 17.2496 122.176 17.1832 122.178 17.0419C122.184 16.6068 122.173 16.1711 122.184 15.7358C122.188 15.5638 122.153 15.4952 121.96 15.4957C119.197 15.5021 116.435 15.5016 113.673 15.4969C113.516 15.4969 113.465 15.5324 113.467 15.6982C113.472 18.2498 113.472 20.8007 113.467 23.3523C113.467 23.5229 113.526 23.55 113.676 23.55C116.439 23.5463 119.201 23.5458 121.963 23.55C122.127 23.55 122.187 23.515 122.185 23.3361C122.175 22.4741 122.175 21.612 122.185 20.7501C122.187 20.5596 122.123 20.5188 121.947 20.5198C120.553 20.5257 119.158 20.5173 117.764 20.5293C117.532 20.5314 117.47 20.4733 117.481 20.2432C117.5 19.7912 117.492 19.3377 117.483 18.8853C117.48 18.7325 117.511 18.6756 117.682 18.6761C119.877 18.6823 122.073 18.6803 124.268 18.6791C124.388 18.6791 124.485 18.6687 124.483 18.8471C124.459 20.3268 124.522 21.8077 124.443 23.2864C124.43 23.5281 124.38 23.7697 124.325 24.0061C124.101 24.9617 123.411 25.3483 122.511 25.4697C122.226 25.5079 121.939 25.5277 121.651 25.5272C119.107 25.5256 116.563 25.5272 114.019 25.5241C113.758 25.5241 113.496 25.5057 113.237 25.4775C111.964 25.3389 111.37 24.751 111.228 23.4867C111.195 23.2016 111.177 22.9139 111.176 22.6273C111.171 20.5811 111.174 18.5348 111.174 16.4886C111.174 16.1135 111.201 15.7411 111.268 15.3713C111.452 14.355 111.957 13.8512 112.977 13.6713C113.374 13.6017 113.774 13.5819 114.175 13.5819C115.395 13.5819 116.615 13.5819 118.113 13.5819L118.112 13.5824Z" fill="#DA2633"/>
<path d="M71.4978 19.5419C71.4978 17.6436 71.5021 15.7454 71.4926 13.8477C71.4916 13.627 71.5559 13.5778 71.7677 13.5778C75.436 13.5841 79.1038 13.5836 82.7721 13.5789C82.9651 13.5789 83.0472 13.6092 83.0377 13.831C83.0174 14.3002 83.0174 14.7715 83.0377 15.2412C83.0477 15.4713 82.9656 15.5058 82.7584 15.5053C79.8747 15.4985 76.9906 15.5038 74.1069 15.4948C73.8616 15.4943 73.7831 15.543 73.79 15.803C73.8098 16.5776 73.8045 17.3529 73.792 18.1275C73.7888 18.3284 73.8491 18.3713 74.0405 18.3701C75.7221 18.3629 77.4038 18.366 79.0849 18.366C79.3186 18.366 79.4354 18.487 79.4354 18.729C79.4354 19.1559 79.4218 19.5827 79.4411 20.0085C79.4511 20.2255 79.3716 20.2601 79.1776 20.259C77.4786 20.2522 75.7797 20.259 74.0807 20.2501C73.859 20.2491 73.7863 20.2915 73.7905 20.5321C73.8072 21.4548 73.805 22.378 73.7915 23.3007C73.7883 23.5224 73.8532 23.5737 74.0672 23.5732C76.9859 23.5664 79.9046 23.5711 82.8233 23.5642C83.0488 23.5642 83.1439 23.6009 83.1304 23.8572C83.1063 24.3175 83.1057 24.7809 83.1304 25.2407C83.1439 25.497 83.0482 25.5325 82.8238 25.532C79.6697 25.5253 76.5157 25.5273 73.362 25.5273C72.8217 25.5273 72.2814 25.5185 71.7415 25.532C71.5475 25.5367 71.4931 25.4881 71.4942 25.2883C71.5026 23.3728 71.4989 21.4573 71.4989 19.5419H71.4978Z" fill="#DA2633"/>
<path d="M129.678 19.5397C129.678 17.642 129.682 15.7443 129.673 13.8466C129.672 13.628 129.731 13.571 129.948 13.5768C130.548 13.5925 131.149 13.5893 131.75 13.5778C131.937 13.5741 131.981 13.6332 131.98 13.8126C131.971 15.2317 131.981 16.6508 131.969 18.0694C131.968 18.2823 132.033 18.3236 132.23 18.3231C134.983 18.3167 137.736 18.3162 140.488 18.3241C140.707 18.3246 140.759 18.265 140.758 18.0511C140.748 16.6498 140.758 15.2479 140.747 13.8466C140.746 13.6259 140.809 13.5715 141.024 13.5773C141.624 13.5925 142.226 13.5861 142.827 13.5798C142.981 13.5783 143.057 13.5966 143.056 13.788C143.05 17.6358 143.05 21.4834 143.055 25.3312C143.055 25.5006 142.998 25.532 142.845 25.5304C142.228 25.5231 141.608 25.5184 140.991 25.5325C140.791 25.5372 140.747 25.4786 140.748 25.2866C140.756 23.7112 140.746 22.1351 140.759 20.5597C140.761 20.3206 140.692 20.2788 140.47 20.2793C137.725 20.2872 134.982 20.2872 132.237 20.2793C132.015 20.2788 131.968 20.3416 131.969 20.5545C131.98 22.1216 131.968 23.6882 131.982 25.2552C131.984 25.4985 131.909 25.5388 131.691 25.533C131.099 25.5184 130.507 25.5189 129.915 25.533C129.715 25.5377 129.672 25.4786 129.673 25.2861C129.681 23.3712 129.677 21.4557 129.677 19.5408L129.678 19.5397Z" fill="#DA2633"/>
<path d="M43.5236 12.0168C44.3035 12.0168 45.052 12.0216 45.8005 12.0131C45.9652 12.0111 46.0024 12.1205 46.0579 12.225C47.0763 14.1431 48.0931 16.0623 49.1115 17.9803C50.0399 19.7295 50.969 21.4781 51.8969 23.2257C51.9967 23.2183 51.9937 23.1284 52.0214 23.074C53.8516 19.4737 55.6807 15.8724 57.5016 12.2674C57.5979 12.0764 57.7019 12.0064 57.9148 12.0116C58.5488 12.0263 59.1832 12.0168 59.8088 12.0168C59.8554 12.1058 59.7936 12.1497 59.7675 12.1988C57.4843 16.5629 55.1985 20.9258 52.9179 25.2913C52.8269 25.4655 52.7301 25.5424 52.522 25.5335C52.0433 25.5136 51.5637 25.5204 51.0845 25.5314C50.9402 25.5346 50.8696 25.4822 50.8032 25.3614C48.3917 20.9466 45.9763 16.5341 43.5623 12.121C43.5508 12.0995 43.5451 12.0754 43.5236 12.0168Z" fill="#DA2633"/>
<path d="M153.01 13.5821C155.074 13.5821 157.138 13.5857 159.202 13.5769C159.422 13.5758 159.48 13.6365 159.473 13.851C159.457 14.3291 159.457 14.8087 159.473 15.2868C159.48 15.4861 159.421 15.5337 159.228 15.5326C157.651 15.5253 156.074 15.5285 154.498 15.5285C154.255 15.5285 154.133 15.6458 154.133 15.8805C154.133 18.9964 154.131 22.1128 154.138 25.2287C154.139 25.4558 154.099 25.5436 153.847 25.5348C153.264 25.5133 152.68 25.5175 152.097 25.5338C151.88 25.54 151.825 25.484 151.826 25.2648C151.834 22.1662 151.831 19.0675 151.831 15.9688C151.831 15.9165 151.824 15.8632 151.832 15.8125C151.872 15.5854 151.785 15.5216 151.553 15.5232C149.968 15.5337 148.383 15.5248 146.797 15.5331C146.586 15.5342 146.512 15.4876 146.521 15.2643C146.54 14.8035 146.54 14.3411 146.521 13.8808C146.512 13.6465 146.57 13.5753 146.816 13.5764C148.881 13.5869 150.945 13.5826 153.009 13.5826L153.01 13.5821Z" fill="#DA2633"/>
<path d="M88.0419 18.6835C88.0419 16.4897 88.0456 14.2959 88.0367 12.1022C88.0357 11.881 88.0968 11.8276 88.3113 11.8334C88.8856 11.8491 89.4615 11.8501 90.0359 11.8334C90.2613 11.8265 90.3015 11.903 90.3015 12.1111C90.2953 15.8542 90.3 19.5978 90.2905 23.3408C90.29 23.5978 90.3575 23.65 90.6055 23.6495C93.428 23.6401 96.2504 23.6459 99.0724 23.6385C99.2905 23.638 99.3753 23.6726 99.3633 23.9162C99.3397 24.3766 99.3476 24.8389 99.3606 25.2998C99.3658 25.4813 99.3162 25.5315 99.1315 25.5315C95.5165 25.5257 91.9011 25.5252 88.2862 25.533C88.0634 25.533 88.0382 25.452 88.0388 25.2652C88.044 23.0715 88.0419 20.8772 88.0419 18.6835Z" fill="#DA2633"/>
<path d="M65.8456 19.5737C65.8456 21.4625 65.8403 23.3513 65.8518 25.2402C65.8535 25.488 65.7775 25.5382 65.5484 25.532C64.9563 25.5163 64.3642 25.5225 63.7716 25.5294C63.6168 25.5309 63.542 25.5115 63.5425 25.3222C63.5487 21.4751 63.5477 17.6273 63.5446 13.7802C63.5446 13.6416 63.5686 13.5767 63.7266 13.5783C64.3711 13.5856 65.0159 13.5898 65.6599 13.5767C65.8785 13.572 65.8451 13.6997 65.8451 13.8283C65.8451 15.7433 65.8456 17.6587 65.8456 19.5737Z" fill="#DA2633"/>
<path d="M103.379 19.5722C103.379 17.6567 103.382 15.7412 103.374 13.8257C103.373 13.6312 103.419 13.5736 103.617 13.5778C104.235 13.5908 104.854 13.5872 105.474 13.5793C105.629 13.5773 105.682 13.6149 105.682 13.7813C105.677 17.6295 105.677 21.4782 105.682 25.3265C105.682 25.486 105.643 25.5336 105.48 25.5315C104.853 25.5215 104.225 25.5195 103.597 25.5325C103.403 25.5367 103.376 25.4641 103.376 25.2929C103.382 23.3864 103.38 21.4792 103.38 19.5727L103.379 19.5722Z" fill="#DA2633"/>
<path d="M17.0268 20.5429C18.021 20.6028 18.2265 21.1384 18.3403 21.8207C18.5094 22.8321 18.7822 23.8312 19.0208 24.8797C19.2605 24.6457 19.2119 24.3764 19.2694 24.1452C19.4903 23.2479 19.6892 22.3469 19.8692 21.443C19.9487 21.0443 20.0637 20.7151 20.6172 20.6579C20.7541 20.6437 20.8811 20.56 21.1032 20.4714C20.4326 25.6029 19.7698 30.679 19.1058 35.7552C19.0782 35.7562 19.0495 35.7571 19.0219 35.7581C18.3558 30.6819 17.6907 25.6066 17.0268 20.5429Z" fill="#DA2633"/>
<path d="M37.408 17.9574C32.3273 18.4557 27.2477 18.9532 22.1595 19.4523C22.3776 18.6467 22.3786 18.6501 23.2789 18.5014C24.3258 18.3277 25.3719 18.1484 26.4236 17.886C25.8777 17.7904 25.3328 17.6933 24.787 17.6002C24.2116 17.5031 23.638 17.3917 23.0587 17.3212C22.6615 17.273 22.3747 17.1633 22.3043 16.7821C22.2824 16.6658 22.2014 16.5587 22.1223 16.395C27.2477 16.8975 32.3264 17.3959 37.4061 17.8942C37.4061 17.915 37.4071 17.9366 37.408 17.9574Z" fill="#DA2633"/>
<path d="M21.1032 15.3511C20.9849 15.3244 20.9506 15.315 20.9164 15.3091C20.1314 15.1814 19.8749 14.7398 19.782 14.0874C19.6482 13.1461 19.3884 12.2172 19.1805 11.2835C19.1618 11.1966 19.1883 11.086 19.0114 11.0431C18.7637 12.159 18.4962 13.2682 18.2828 14.385C18.1998 14.817 18.0462 15.1261 17.5 15.2034C17.3629 15.2233 17.2358 15.2977 17.0268 15.3759C17.6978 10.2467 18.3613 5.17087 19.0246 0.0940898C19.0523 0.0921824 19.0799 0.0912286 19.1064 0.0893211C19.7698 5.16229 20.4332 10.2352 21.1021 15.3502L21.1032 15.3511Z" fill="#DA2633"/>
<path d="M11.6951 17.9701C12.7978 18.1552 13.8976 18.3569 15.0059 18.5163C15.4388 18.5785 15.746 18.6947 15.8279 19.1038C15.8478 19.2051 15.9258 19.298 16.0076 19.4523C10.8798 18.9495 5.80421 18.4516 0.728645 17.9536C0.725791 17.932 0.723892 17.9104 0.721039 17.8888C5.78138 17.3918 10.8408 16.8939 15.9154 16.395C15.8154 16.9644 15.5567 17.2881 14.8327 17.3594C13.7767 17.4631 12.7378 17.6963 11.6922 17.8739C11.6931 17.9054 11.6942 17.9378 11.6961 17.9693L11.6951 17.9701Z" fill="#DA2633"/>
</g>
<defs>
<clipPath id="clip0_1_279">
<rect width="160" height="36.6879" fill="white"/>
</clipPath>
</defs>
</svg>
