<svg width="48" height="48" viewBox="0 0 48 48" fill="none" xmlns="http://www.w3.org/2000/svg">
<path d="M24 4.5C23.6021 4.5 23.2206 4.65804 22.9393 4.93934C22.658 5.22064 22.5 5.60218 22.5 6V16.5C22.5 16.8978 22.658 17.2794 22.9393 17.5607C23.2206 17.842 23.6021 18 24 18C25.3207 18.0003 26.6045 18.4364 27.6521 19.2406C28.6998 20.0448 29.4528 21.1723 29.7944 22.4481C30.1361 23.7239 30.0472 25.0767 29.5416 26.2969C29.036 27.517 28.1419 28.5362 26.998 29.1965C25.8542 29.8567 24.5244 30.1211 23.215 29.9486C21.9055 29.7761 20.6896 29.1764 19.7557 28.2424C18.8219 27.3084 18.2223 26.0924 18.0499 24.783C17.8776 23.4735 18.1421 22.1438 18.8025 21C18.901 20.8294 18.9649 20.641 18.9907 20.4457C19.0164 20.2503 19.0034 20.0518 18.9523 19.8615C18.9013 19.6712 18.8133 19.4928 18.6933 19.3365C18.5734 19.1802 18.4238 19.0491 18.2531 18.9506L9.15934 13.7006C8.98872 13.6021 8.80035 13.5381 8.605 13.5124C8.40966 13.4867 8.21116 13.4997 8.02085 13.5508C7.83053 13.6018 7.65214 13.6898 7.49585 13.8098C7.33955 13.9297 7.20843 14.0793 7.10997 14.25C4.96371 17.9674 4.10403 22.2892 4.66425 26.545C5.22447 30.8007 7.17327 34.7528 10.2084 37.7881C13.2436 40.8235 17.1955 42.7726 21.4513 43.333C25.707 43.8935 30.0288 43.0341 33.7464 40.8881C37.4639 38.7421 40.3695 35.4294 42.0125 31.4638C43.6555 27.4981 43.9441 23.1012 42.8335 18.9548C41.7229 14.8085 39.2752 11.1444 35.87 8.53094C32.4649 5.91745 28.2925 4.50055 24 4.5ZM9.01684 17.0812L15.5625 20.8612C15.19 21.8658 14.9995 22.9286 15 24C15 24.2869 15.015 24.5625 15.0412 24.8475L7.73997 26.8125C7.17058 23.5143 7.61584 20.1209 9.01684 17.0812ZM8.51622 29.7019L15.8287 27.7444C16.4401 29.077 17.3672 30.2406 18.5296 31.1341C19.6921 32.0277 21.0549 32.6244 22.5 32.8725V40.4306C19.3946 40.1428 16.434 38.9828 13.9597 37.0844C11.4854 35.1861 9.59832 32.6268 8.51622 29.7019ZM25.5 40.4306V32.8725C27.5963 32.5172 29.499 31.4312 30.8711 29.807C32.2432 28.1828 32.9959 26.1252 32.9959 23.9991C32.9959 21.8729 32.2432 19.8154 30.8711 18.1911C29.499 16.5669 27.5963 15.4809 25.5 15.1256V7.5675C29.5991 7.94201 33.4102 9.83512 36.1852 12.8752C38.9602 15.9153 40.4987 19.8829 40.4987 23.9991C40.4987 28.1152 38.9602 32.0828 36.1852 35.1229C33.4102 38.163 29.5991 40.0561 25.5 40.4306Z" fill="#016AB5"/>
</svg>
