<svg width="48" height="48" viewBox="0 0 48 48" fill="none" xmlns="http://www.w3.org/2000/svg">
<path d="M41.5612 16.9388L31.0613 6.43875C30.9218 6.2995 30.7564 6.18908 30.5743 6.1138C30.3922 6.03851 30.197 5.99985 30 6H7.5C7.10218 6 6.72064 6.15804 6.43934 6.43934C6.15804 6.72065 6 7.10218 6 7.5V30C6.00017 30.3936 6.15505 30.7714 6.43125 31.0519L16.9313 41.5519C17.0708 41.6937 17.2371 41.8064 17.4206 41.8833C17.6041 41.9603 17.801 41.9999 18 42H40.5C40.8978 42 41.2794 41.842 41.5607 41.5607C41.842 41.2794 42 40.8978 42 40.5V18C42.0002 17.803 41.9615 17.6078 41.8862 17.4257C41.8109 17.2436 41.7005 17.0782 41.5612 16.9388ZM31.5 11.1206L36.8794 16.5H31.5V11.1206ZM16.5 36.8794L11.1206 31.5H16.5V36.8794ZM16.5 28.5H9V11.1206L16.5 18.6206V28.5ZM11.1206 9H28.5V16.5H18.6206L11.1206 9ZM28.5 19.5V28.5H19.5V19.5H28.5ZM19.5 39V31.5H29.3794L36.8794 39H19.5ZM39 36.8794L31.5 29.3794V19.5H39V36.8794Z" fill="#DE195C"/>
</svg>
