<svg width="48" height="48" viewBox="0 0 48 48" fill="none" xmlns="http://www.w3.org/2000/svg">
<path d="M41.94 12.4032L25.44 3.37503C24.9991 3.13144 24.5037 3.00366 24 3.00366C23.4963 3.00366 23.0009 3.13144 22.56 3.37503L6.06 12.4069C5.58879 12.6647 5.19544 13.0443 4.92103 13.5061C4.64663 13.9678 4.50122 14.4948 4.5 15.0319V32.9644C4.50122 33.5015 4.64663 34.0285 4.92103 34.4902C5.19544 34.952 5.58879 35.3316 6.06 35.5894L22.56 44.6213C23.0009 44.8649 23.4963 44.9927 24 44.9927C24.5037 44.9927 24.9991 44.8649 25.44 44.6213L41.94 35.5894C42.4112 35.3316 42.8046 34.952 43.079 34.4902C43.3534 34.0285 43.4988 33.5015 43.5 32.9644V15.0338C43.4998 14.4957 43.3549 13.9676 43.0804 13.5048C42.8059 13.0419 42.412 12.6614 41.94 12.4032ZM24 6.00003L39.0638 14.25L24 22.5L8.93625 14.25L24 6.00003ZM7.5 16.875L22.5 25.0838V41.1694L7.5 32.9663V16.875ZM25.5 41.1694V25.0913L40.5 16.875V32.9588L25.5 41.1694Z" fill="#DE195C"/>
</svg>
