<svg width="20" height="21" viewBox="0 0 20 21" fill="none" xmlns="http://www.w3.org/2000/svg">
<path d="M9.79113 0.893555C4.42553 0.893555 0.0757904 5.2433 0.0757904 10.6089C0.0757904 15.165 3.21267 18.9882 7.44428 20.0382V13.5779H5.44098V10.6089H7.44428V9.32956C7.44428 6.02286 8.94082 4.49017 12.1873 4.49017C12.8029 4.49017 13.8649 4.61102 14.2994 4.73149V7.42264C14.0702 7.39854 13.6718 7.3865 13.1771 7.3865C11.5841 7.3865 10.9686 7.99001 10.9686 9.55888V10.6089H14.142L13.5968 13.5779H10.9686V20.2531C15.7792 19.6721 19.5068 15.5761 19.5068 10.6089C19.5064 5.2433 15.1566 0.893555 9.79113 0.893555Z" fill="white"/>
</svg>
