<svg width="20" height="21" viewBox="0 0 20 21" fill="none" xmlns="http://www.w3.org/2000/svg">
<path d="M10.1809 2.6089C12.7767 2.6089 13.0841 2.62027 14.105 2.66582C15.0537 2.70756 15.566 2.86695 15.9076 2.99978C16.3593 3.17435 16.6856 3.38688 17.0233 3.72463C17.3649 4.06619 17.5736 4.38877 17.7482 4.84038C17.881 5.18193 18.0404 5.69806 18.0822 6.64303C18.1277 7.66769 18.1391 7.97509 18.1391 10.5671C18.1391 13.1629 18.1277 13.4703 18.0822 14.4912C18.0404 15.4399 17.881 15.9522 17.7482 16.2938C17.5736 16.7454 17.3611 17.0718 17.0233 17.4096C16.6818 17.7512 16.3593 17.9598 15.9076 18.1345C15.566 18.2673 15.0499 18.4266 14.105 18.4683C13.0803 18.5139 12.7729 18.5253 10.1809 18.5253C7.58508 18.5253 7.27769 18.5139 6.25681 18.4683C5.30806 18.4266 4.79573 18.2673 4.45417 18.1345C4.00256 17.9598 3.67618 17.7473 3.33843 17.4096C2.99687 17.0681 2.78814 16.7454 2.61357 16.2938C2.48075 15.9522 2.32135 15.4361 2.27961 14.4912C2.23407 13.4665 2.22268 13.1591 2.22268 10.5671C2.22268 7.97129 2.23407 7.66389 2.27961 6.64303C2.32135 5.69426 2.48075 5.18193 2.61357 4.84038C2.78814 4.38877 3.00067 4.06239 3.33843 3.72463C3.67998 3.38308 4.00256 3.17435 4.45417 2.99978C4.79573 2.86695 5.31185 2.70756 6.25681 2.66582C7.27769 2.62027 7.58508 2.6089 10.1809 2.6089ZM10.1809 0.859375C7.54334 0.859375 7.21317 0.87076 6.17712 0.916301C5.14487 0.961843 4.43519 1.12882 3.8204 1.36792C3.17904 1.61838 2.63634 1.94856 2.09745 2.49124C1.55476 3.03014 1.22458 3.57284 0.974115 4.2104C0.735024 4.82899 0.568042 5.53487 0.522502 6.56712C0.476961 7.60697 0.465576 7.93713 0.465576 10.5747C0.465576 13.2122 0.476961 13.5424 0.522502 14.5784C0.568042 15.6107 0.735024 16.3204 0.974115 16.9351C1.22458 17.5765 1.55476 18.1192 2.09745 18.6582C2.63634 19.1971 3.17904 19.531 3.8166 19.7777C4.43519 20.0168 5.14108 20.1838 6.17333 20.2293C7.20937 20.2749 7.53954 20.2862 10.1771 20.2862C12.8147 20.2862 13.1448 20.2749 14.1809 20.2293C15.2131 20.1838 15.9228 20.0168 16.5376 19.7777C17.1752 19.531 17.7179 19.1971 18.2567 18.6582C18.7957 18.1192 19.1296 17.5766 19.3763 16.939C19.6154 16.3204 19.7824 15.6145 19.8279 14.5822C19.8734 13.5462 19.8848 13.216 19.8848 10.5785C19.8848 7.94093 19.8734 7.61077 19.8279 6.57472C19.7824 5.54247 19.6154 4.83279 19.3763 4.21799C19.1372 3.57284 18.807 3.03014 18.2643 2.49124C17.7255 1.95235 17.1827 1.61838 16.5452 1.3717C15.9266 1.13261 15.2207 0.965632 14.1885 0.920095C13.1486 0.87076 12.8185 0.859375 10.1809 0.859375Z" fill="white"/>
<path d="M10.1809 5.58496C7.42571 5.58496 5.19043 7.82024 5.19043 10.5754C5.19043 13.3306 7.42571 15.5659 10.1809 15.5659C12.9362 15.5659 15.1714 13.3306 15.1714 10.5754C15.1714 7.82024 12.9362 5.58496 10.1809 5.58496ZM10.1809 13.8126C8.39345 13.8126 6.94374 12.3629 6.94374 10.5754C6.94374 8.78798 8.39345 7.33827 10.1809 7.33827C11.9684 7.33827 13.4181 8.78798 13.4181 10.5754C13.4181 12.3629 11.9684 13.8126 10.1809 13.8126Z" fill="white"/>
<path d="M16.5338 5.38676C16.5338 6.03192 16.0101 6.55184 15.3687 6.55184C14.7235 6.55184 14.2036 6.02813 14.2036 5.38676C14.2036 4.7416 14.7274 4.22168 15.3687 4.22168C16.0101 4.22168 16.5338 4.7454 16.5338 5.38676Z" fill="white"/>
</svg>
