<svg width="36" height="36" viewBox="0 0 36 36" fill="none" xmlns="http://www.w3.org/2000/svg">
<path d="M16 20.57C16.9756 20.6288 17.1772 21.1545 17.2889 21.8239C17.4547 22.8164 17.7225 23.7967 17.9566 24.8256C18.1919 24.5959 18.1442 24.3317 18.2005 24.1048C18.4173 23.2244 18.6125 22.3402 18.7892 21.4533C18.8672 21.0621 18.9799 20.739 19.523 20.683C19.6575 20.669 19.7821 20.5868 20 20.5C19.342 25.5352 18.6916 30.5162 18.0401 35.4972C18.013 35.4981 17.9848 35.4991 17.9577 35.5C17.3041 30.519 16.6515 25.5389 16 20.57Z" fill="white"/>
<path d="M35.9991 18.033C31.0137 18.522 26.0293 19.0102 21.0364 19.5C21.2505 18.7095 21.2515 18.7127 22.1349 18.5668C23.1622 18.3965 24.1886 18.2205 25.2207 17.9629C24.685 17.8692 24.1503 17.7738 23.6147 17.6826C23.05 17.5872 22.4873 17.478 21.9189 17.4087C21.5291 17.3615 21.2477 17.2539 21.1785 16.8798C21.157 16.7657 21.0776 16.6606 21 16.5C26.0293 16.9931 31.0128 17.4821 35.9972 17.9711C35.9972 17.9914 35.9982 18.0126 35.9991 18.033Z" fill="white"/>
<path d="M20 15.4757C19.8839 15.4495 19.8503 15.4401 19.8167 15.4345C19.0464 15.3091 18.7947 14.8758 18.7036 14.2356C18.5723 13.312 18.3173 12.4004 18.1134 11.4842C18.0949 11.3991 18.121 11.2905 17.9474 11.2484C17.7044 12.3433 17.4418 13.4317 17.2325 14.5276C17.1511 14.9516 17.0003 15.2548 16.4643 15.3306C16.3298 15.3503 16.205 15.4233 16 15.5C16.6585 10.4669 17.3095 5.48627 17.9604 0.504679C17.9875 0.502808 18.0147 0.501872 18.0407 0.5C18.6916 5.47785 19.3426 10.4557 19.9989 15.4747L20 15.4757Z" fill="white"/>
<path d="M10.7683 18.0456C11.8503 18.2272 12.9294 18.4251 14.017 18.5814C14.4418 18.6425 14.7433 18.7565 14.8236 19.158C14.8432 19.2573 14.9197 19.3485 15 19.5C9.96826 19.0065 4.98786 18.5179 0.00746416 18.0293C0.00466356 18.0081 0.0028006 17.987 0 17.9658C4.96546 17.478 9.92999 16.9894 14.9094 16.5C14.8114 17.0586 14.5575 17.3762 13.8471 17.4463C12.8109 17.548 11.7914 17.7769 10.7655 17.9511C10.7664 17.9821 10.7674 18.0138 10.7692 18.0448L10.7683 18.0456Z" fill="white"/>
</svg>
