<svg width="48" height="48" viewBox="0 0 48 48" fill="none" xmlns="http://www.w3.org/2000/svg">
<g clip-path="url(#clip0_65_2209)">
<path d="M47.3325 22.7513L38.3325 16.7513C38.1065 16.6005 37.8439 16.5139 37.5726 16.5008C37.3013 16.4877 37.0315 16.5484 36.792 16.6766C36.5526 16.8048 36.3524 16.9957 36.2129 17.2287C36.0734 17.4618 35.9998 17.7284 36 18V22.5H13.5V13.5H19.6875C20.0526 14.914 20.9208 16.1463 22.1295 16.9659C23.3382 17.7855 24.8043 18.1362 26.253 17.9522C27.7017 17.7682 29.0336 17.0621 29.999 15.9664C30.9644 14.8706 31.497 13.4604 31.497 12C31.497 10.5397 30.9644 9.12942 29.999 8.03367C29.0336 6.93791 27.7017 6.23185 26.253 6.04784C24.8043 5.86382 23.3382 6.21449 22.1295 7.03411C20.9208 7.85373 20.0526 9.08603 19.6875 10.5H13.5C12.7044 10.5 11.9413 10.8161 11.3787 11.3787C10.8161 11.9413 10.5 12.7044 10.5 13.5V22.5H1.5C1.10218 22.5 0.720644 22.6581 0.43934 22.9394C0.158035 23.2207 0 23.6022 0 24C0 24.3978 0.158035 24.7794 0.43934 25.0607C0.720644 25.342 1.10218 25.5 1.5 25.5H10.5V34.5C10.5 35.2957 10.8161 36.0587 11.3787 36.6213C11.9413 37.1839 12.7044 37.5 13.5 37.5H19.5V39C19.5 39.7957 19.8161 40.5587 20.3787 41.1213C20.9413 41.6839 21.7044 42 22.5 42H28.5C29.2956 42 30.0587 41.6839 30.6213 41.1213C31.1839 40.5587 31.5 39.7957 31.5 39V33C31.5 32.2044 31.1839 31.4413 30.6213 30.8787C30.0587 30.3161 29.2956 30 28.5 30H22.5C21.7044 30 20.9413 30.3161 20.3787 30.8787C19.8161 31.4413 19.5 32.2044 19.5 33V34.5H13.5V25.5H36V30C35.9998 30.2716 36.0734 30.5382 36.2129 30.7713C36.3524 31.0044 36.5526 31.1952 36.792 31.3234C37.0315 31.4516 37.3013 31.5124 37.5726 31.4992C37.8439 31.4861 38.1065 31.3995 38.3325 31.2488L47.3325 25.2488C47.5382 25.1118 47.707 24.9262 47.8237 24.7083C47.9404 24.4905 48.0015 24.2472 48.0015 24C48.0015 23.7529 47.9404 23.5095 47.8237 23.2917C47.707 23.0738 47.5382 22.8882 47.3325 22.7513ZM25.5 9.00001C26.0933 9.00001 26.6734 9.17596 27.1667 9.50561C27.6601 9.83525 28.0446 10.3038 28.2716 10.852C28.4987 11.4001 28.5581 12.0033 28.4424 12.5853C28.3266 13.1672 28.0409 13.7018 27.6213 14.1213C27.2018 14.5409 26.6672 14.8266 26.0853 14.9424C25.5033 15.0581 24.9001 14.9987 24.3519 14.7717C23.8038 14.5446 23.3352 14.1601 23.0056 13.6667C22.6759 13.1734 22.5 12.5934 22.5 12C22.5 11.2044 22.8161 10.4413 23.3787 9.87869C23.9413 9.31608 24.7044 9.00001 25.5 9.00001ZM22.5 33H28.5V39H22.5V33ZM39 27.1969V20.8125L43.7962 24L39 27.1969Z" fill="#016AB5"/>
</g>
<defs>
<clipPath id="clip0_65_2209">
<rect width="48" height="48" fill="white"/>
</clipPath>
</defs>
</svg>
