<svg width="20" height="15" viewBox="0 0 20 15" fill="none" xmlns="http://www.w3.org/2000/svg">
<path d="M19.1672 3.65819C19.1672 3.65819 18.9861 2.37956 18.4283 1.81812C17.722 1.07919 16.9323 1.07557 16.5701 1.0321C13.9766 0.84375 10.0828 0.84375 10.0828 0.84375H10.0755C10.0755 0.84375 6.18168 0.84375 3.58819 1.0321C3.22597 1.07557 2.43633 1.07919 1.73001 1.81812C1.17219 2.37956 0.994707 3.65819 0.994707 3.65819C0.994707 3.65819 0.806351 5.1614 0.806351 6.66098V8.06639C0.806351 9.56601 0.991081 11.0692 0.991081 11.0692C0.991081 11.0692 1.17219 12.3478 1.72639 12.9093C2.43271 13.6481 3.35999 13.6228 3.77292 13.7025C5.25802 13.8438 10.0791 13.8872 10.0791 13.8872C10.0791 13.8872 13.9766 13.88 16.5701 13.6953C16.9323 13.6518 17.722 13.6481 18.4283 12.9093C18.9861 12.3478 19.1672 11.0692 19.1672 11.0692C19.1672 11.0692 19.3519 9.56955 19.3519 8.06639V6.66098C19.3519 5.1614 19.1672 3.65819 19.1672 3.65819ZM8.16301 9.77246V4.56011L13.1725 7.17532L8.16301 9.77246Z" fill="white"/>
</svg>
